solid MGN9 Alignment Tool v1 SNUG
facet normal -1.0 0.0 0.0
  outer loop
    vertex 0.0 17.0 19.999999999999996
    vertex 0.0 0.0 0.0
    vertex 0.0 0.0 19.999999999999996
  endloop
endfacet
facet normal -1.0 0.0 0.0
  outer loop
    vertex 0.0 0.0 0.0
    vertex 0.0 17.0 19.999999999999996
    vertex 0.0 17.0 0.0
  endloop
endfacet
facet normal 0.0 0.0 -1.0
  outer loop
    vertex 0.0 17.0 0.0
    vertex 4.050000190734863 6.999999809265136 0.0
    vertex 0.0 0.0 0.0
  endloop
endfacet
facet normal 0.0 0.0 -1.0
  outer loop
    vertex 4.050000190734863 6.999999809265136 0.0
    vertex 0.0 17.0 0.0
    vertex 9.550000190734862 13.699999809265135 0.0
  endloop
endfacet
facet normal 0.0 0.0 -1.0
  outer loop
    vertex 9.550000190734862 13.699999809265135 0.0
    vertex 0.0 17.0 0.0
    vertex 28.100000381469723 17.0 0.0
  endloop
endfacet
facet normal 0.0 0.0 -1.0
  outer loop
    vertex 9.550000190734862 13.699999809265135 0.0
    vertex 28.100000381469723 17.0 0.0
    vertex 18.550000190734863 13.699999809265135 0.0
  endloop
endfacet
facet normal 0.0 0.0 -1.0
  outer loop
    vertex 18.550000190734863 13.699999809265135 0.0
    vertex 28.100000381469723 17.0 0.0
    vertex 18.550000190734863 6.999999809265135 0.0
  endloop
endfacet
facet normal 0.0 0.0 -1.0
  outer loop
    vertex 18.550000190734863 6.999999809265135 0.0
    vertex 28.100000381469723 17.0 0.0
    vertex 24.050000190734863 6.999999809265136 0.0
  endloop
endfacet
facet normal 0.0 0.0 -1.0
  outer loop
    vertex 24.050000190734863 6.999999809265136 0.0
    vertex 28.100000381469723 17.0 0.0
    vertex 24.050000190734863 -1.9073486539067373e-07 0.0
  endloop
endfacet
facet normal 0.0 0.0 -1.0
  outer loop
    vertex 24.050000190734863 -1.9073486539067373e-07 0.0
    vertex 28.100000381469723 17.0 0.0
    vertex 28.100000381469723 -5.482684595201107e-27 0.0
  endloop
endfacet
facet normal 0.0 0.0 -1.0
  outer loop
    vertex 9.550000190734862 6.999999809265135 0.0
    vertex 4.050000190734863 6.999999809265136 0.0
    vertex 9.550000190734862 13.699999809265135 0.0
  endloop
endfacet
facet normal 0.0 0.0 -1.0
  outer loop
    vertex 4.050000190734863 -1.9073486539067373e-07 0.0
    vertex 0.0 0.0 0.0
    vertex 4.050000190734863 6.999999809265136 0.0
  endloop
endfacet
facet normal -0.0 1.0 -0.0
  outer loop
    vertex 0.0 17.0 19.999999999999996
    vertex 28.100000381469723 17.0 0.0
    vertex 0.0 17.0 0.0
  endloop
endfacet
facet normal -0.0 1.0 -0.0
  outer loop
    vertex 28.100000381469723 17.0 0.0
    vertex 0.0 17.0 19.999999999999996
    vertex 28.100000381469723 17.0 19.999999999999996
  endloop
endfacet
facet normal 1.0 -0.0 -0.0
  outer loop
    vertex 28.100000381469723 17.0 0.0
    vertex 28.100000381469723 -5.482684595201107e-27 19.999999999999996
    vertex 28.100000381469723 -5.482684595201107e-27 0.0
  endloop
endfacet
facet normal 1.0 -0.0 -0.0
  outer loop
    vertex 28.100000381469723 -5.482684595201107e-27 19.999999999999996
    vertex 28.100000381469723 17.0 0.0
    vertex 28.100000381469723 17.0 19.999999999999996
  endloop
endfacet
facet normal -4.7095026273582736e-08 -0.9999999999999989 0.0
  outer loop
    vertex 4.050000190734863 -1.9073486539067373e-07 19.999999999999996
    vertex 0.0 0.0 0.0
    vertex 4.050000190734863 -1.9073486539067373e-07 0.0
  endloop
endfacet
facet normal -4.7095026273582736e-08 -0.9999999999999989 0.0
  outer loop
    vertex 0.0 0.0 0.0
    vertex 4.050000190734863 -1.9073486539067373e-07 19.999999999999996
    vertex 0.0 0.0 19.999999999999996
  endloop
endfacet
facet normal -0.0 -0.0 1.0
  outer loop
    vertex 24.050000190734863 6.999999809265136 19.999999999999996
    vertex 18.550000190734863 13.699999809265135 19.999999999999996
    vertex 18.550000190734863 6.999999809265135 19.999999999999996
  endloop
endfacet
facet normal -0.0 -0.0 1.0
  outer loop
    vertex 28.100000381469723 -5.482684595201107e-27 19.999999999999996
    vertex 24.050000190734863 6.999999809265136 19.999999999999996
    vertex 24.050000190734863 -1.9073486539067373e-07 19.999999999999996
  endloop
endfacet
facet normal -0.0 -0.0 1.0
  outer loop
    vertex 4.050000190734863 -1.9073486539067373e-07 19.999999999999996
    vertex 0.0 17.0 19.999999999999996
    vertex 0.0 0.0 19.999999999999996
  endloop
endfacet
facet normal -0.0 -0.0 1.0
  outer loop
    vertex 0.0 17.0 19.999999999999996
    vertex 4.050000190734863 -1.9073486539067373e-07 19.999999999999996
    vertex 4.050000190734863 6.999999809265136 19.999999999999996
  endloop
endfacet
facet normal -0.0 -0.0 1.0
  outer loop
    vertex 0.0 17.0 19.999999999999996
    vertex 4.050000190734863 6.999999809265136 19.999999999999996
    vertex 9.550000190734862 13.699999809265135 19.999999999999996
  endloop
endfacet
facet normal -0.0 -0.0 1.0
  outer loop
    vertex 0.0 17.0 19.999999999999996
    vertex 9.550000190734862 13.699999809265135 19.999999999999996
    vertex 28.100000381469723 17.0 19.999999999999996
  endloop
endfacet
facet normal -0.0 -0.0 1.0
  outer loop
    vertex 9.550000190734862 13.699999809265135 19.999999999999996
    vertex 4.050000190734863 6.999999809265136 19.999999999999996
    vertex 9.550000190734862 6.999999809265135 19.999999999999996
  endloop
endfacet
facet normal -0.0 -0.0 1.0
  outer loop
    vertex 28.100000381469723 17.0 19.999999999999996
    vertex 9.550000190734862 13.699999809265135 19.999999999999996
    vertex 18.550000190734863 13.699999809265135 19.999999999999996
  endloop
endfacet
facet normal -0.0 -0.0 1.0
  outer loop
    vertex 28.100000381469723 17.0 19.999999999999996
    vertex 18.550000190734863 13.699999809265135 19.999999999999996
    vertex 24.050000190734863 6.999999809265136 19.999999999999996
  endloop
endfacet
facet normal -0.0 -0.0 1.0
  outer loop
    vertex 28.100000381469723 17.0 19.999999999999996
    vertex 24.050000190734863 6.999999809265136 19.999999999999996
    vertex 28.100000381469723 -5.482684595201107e-27 19.999999999999996
  endloop
endfacet
facet normal 1.0 0.0 0.0
  outer loop
    vertex 9.550000190734862 13.699999809265135 0.0
    vertex 9.550000190734862 6.999999809265135 19.999999999999996
    vertex 9.550000190734862 6.999999809265135 0.0
  endloop
endfacet
facet normal 1.0 0.0 0.0
  outer loop
    vertex 9.550000190734862 6.999999809265135 19.999999999999996
    vertex 9.550000190734862 13.699999809265135 0.0
    vertex 9.550000190734862 13.699999809265135 19.999999999999996
  endloop
endfacet
facet normal -2.563605893225362e-16 -1.0 -0.0
  outer loop
    vertex 9.550000190734862 6.999999809265135 19.999999999999996
    vertex 4.050000190734863 6.999999809265136 0.0
    vertex 9.550000190734862 6.999999809265135 0.0
  endloop
endfacet
facet normal -2.563605893225362e-16 -1.0 -0.0
  outer loop
    vertex 4.050000190734863 6.999999809265136 0.0
    vertex 9.550000190734862 6.999999809265135 19.999999999999996
    vertex 4.050000190734863 6.999999809265136 19.999999999999996
  endloop
endfacet
facet normal 1.0 -0.0 -0.0
  outer loop
    vertex 4.050000190734863 6.999999809265136 0.0
    vertex 4.050000190734863 -1.9073486539067373e-07 19.999999999999996
    vertex 4.050000190734863 -1.9073486539067373e-07 0.0
  endloop
endfacet
facet normal 1.0 -0.0 -0.0
  outer loop
    vertex 4.050000190734863 -1.9073486539067373e-07 19.999999999999996
    vertex 4.050000190734863 6.999999809265136 0.0
    vertex 4.050000190734863 6.999999809265136 19.999999999999996
  endloop
endfacet
facet normal -1.0 0.0 0.0
  outer loop
    vertex 24.050000190734863 6.999999809265136 19.999999999999996
    vertex 24.050000190734863 -1.9073486539067373e-07 0.0
    vertex 24.050000190734863 -1.9073486539067373e-07 19.999999999999996
  endloop
endfacet
facet normal -1.0 0.0 0.0
  outer loop
    vertex 24.050000190734863 -1.9073486539067373e-07 0.0
    vertex 24.050000190734863 6.999999809265136 19.999999999999996
    vertex 24.050000190734863 6.999999809265136 0.0
  endloop
endfacet
facet normal 2.563605893225361e-16 -1.0 -0.0
  outer loop
    vertex 24.050000190734863 6.999999809265136 19.999999999999996
    vertex 18.550000190734863 6.999999809265135 0.0
    vertex 24.050000190734863 6.999999809265136 0.0
  endloop
endfacet
facet normal 2.563605893225361e-16 -1.0 -0.0
  outer loop
    vertex 18.550000190734863 6.999999809265135 0.0
    vertex 24.050000190734863 6.999999809265136 19.999999999999996
    vertex 18.550000190734863 6.999999809265135 19.999999999999996
  endloop
endfacet
facet normal -1.0 0.0 -0.0
  outer loop
    vertex 18.550000190734863 13.699999809265135 19.999999999999996
    vertex 18.550000190734863 6.999999809265135 0.0
    vertex 18.550000190734863 6.999999809265135 19.999999999999996
  endloop
endfacet
facet normal -1.0 0.0 -0.0
  outer loop
    vertex 18.550000190734863 6.999999809265135 0.0
    vertex 18.550000190734863 13.699999809265135 19.999999999999996
    vertex 18.550000190734863 13.699999809265135 0.0
  endloop
endfacet
facet normal -0.0 -1.0 -0.0
  outer loop
    vertex 18.550000190734863 13.699999809265135 19.999999999999996
    vertex 9.550000190734862 13.699999809265135 0.0
    vertex 18.550000190734863 13.699999809265135 0.0
  endloop
endfacet
facet normal -0.0 -1.0 -0.0
  outer loop
    vertex 9.550000190734862 13.699999809265135 0.0
    vertex 18.550000190734863 13.699999809265135 19.999999999999996
    vertex 9.550000190734862 13.699999809265135 19.999999999999996
  endloop
endfacet
facet normal 4.7095026273582775e-08 -0.9999999999999989 0.0
  outer loop
    vertex 28.100000381469723 -5.482684595201107e-27 19.999999999999996
    vertex 24.050000190734863 -1.9073486539067373e-07 0.0
    vertex 28.100000381469723 -5.482684595201107e-27 0.0
  endloop
endfacet
facet normal 4.7095026273582775e-08 -0.9999999999999989 0.0
  outer loop
    vertex 24.050000190734863 -1.9073486539067373e-07 0.0
    vertex 28.100000381469723 -5.482684595201107e-27 19.999999999999996
    vertex 24.050000190734863 -1.9073486539067373e-07 19.999999999999996
  endloop
endfacet
endsolid MGN9 Alignment Tool v1 SNUG
