<?xml version="1.0" encoding="UTF-8" standalone="no"?>
<svg
   viewBox="0 0 69.434493 69.391192"
   width="69.434494"
   height="69.39119"
   version="1.1"
   id="svg17"
   sodipodi:docname="AL_logo_icon.svg"
   inkscape:version="1.4 (86a8ad7, 2024-10-11)"
   xmlns:inkscape="http://www.inkscape.org/namespaces/inkscape"
   xmlns:sodipodi="http://sodipodi.sourceforge.net/DTD/sodipodi-0.dtd"
   xmlns="http://www.w3.org/2000/svg"
   xmlns:svg="http://www.w3.org/2000/svg">
  <sodipodi:namedview
     id="namedview17"
     pagecolor="#ffffff"
     bordercolor="#000000"
     borderopacity="0.25"
     inkscape:showpageshadow="2"
     inkscape:pageopacity="0.0"
     inkscape:pagecheckerboard="0"
     inkscape:deskcolor="#d1d1d1"
     inkscape:zoom="7.6739683"
     inkscape:cx="10.880941"
     inkscape:cy="25.475737"
     inkscape:window-width="1920"
     inkscape:window-height="1129"
     inkscape:window-x="1912"
     inkscape:window-y="224"
     inkscape:window-maximized="1"
     inkscape:current-layer="g17" />
  <desc
     id="desc1">AL_logo.DXF - scale = 1.000000, origin = (0.000000, 0.000000), method = manual</desc>
  <defs
     id="defs4">
    <marker
       id="DistanceX"
       orient="auto"
       refX="0"
       refY="0"
       style="overflow:visible">
      <path
         d="M 3,-3 -3,3 M 0,-5 V 5"
         style="stroke:#000000;stroke-width:0.5"
         id="path1" />
    </marker>
    <pattern
       id="Hatch"
       patternUnits="userSpaceOnUse"
       width="8"
       height="8"
       x="0"
       y="0">
      <path
         d="M8 4 l-4,4"
         stroke="#000000"
         stroke-width="0.25"
         linecap="square"
         id="path2" />
      <path
         d="M6 2 l-4,4"
         stroke="#000000"
         stroke-width="0.25"
         linecap="square"
         id="path3" />
      <path
         d="M4 0 l-4,4"
         stroke="#000000"
         stroke-width="0.25"
         linecap="square"
         id="path4" />
    </pattern>
    <symbol
       id="*Model_Space" />
    <symbol
       id="*Paper_Space" />
    <symbol
       id="*Paper_Space0" />
  </defs>
  <g
     inkscape:groupmode="layer"
     inkscape:label="0"
     id="g17"
     transform="translate(-301.3869,-178.66759)">
    <path
       style="fill:#00bac7;fill-opacity:1;stroke:#00bac7;stroke-width:0.0521243;stroke-dasharray:none;stroke-opacity:1"
       d="M 38.892647,4.9156648 C 33.384219,4.9081523 27.919662,6.4654635 23.077716,9.0507382 14.748233,13.568797 8.3695153,21.588791 6.0078109,30.783685 3.2513431,41.014567 5.5967299,52.436241 12.12834,60.774104 c 6.576942,8.586311 17.3569,13.847958 28.197954,13.452271 7.92851,-0.05781 15.771586,-3.121239 21.763435,-8.287646 3.028713,-2.705544 5.772218,-5.77384 7.725045,-9.356035 C 76.181481,45.542509 75.665899,30.933465 68.488696,20.393111 63.572363,12.990592 55.75367,7.590065 47.066078,5.6876029 44.386649,5.0227253 41.643508,4.8698553 38.892647,4.9156648 Z m -5.217772,7.3246312 c 1.323708,0.04828 2.695561,-0.0706 3.983893,0.124966 1.798146,2.564211 3.188114,5.399486 4.812644,8.08412 3.990243,6.963319 8.045835,13.892197 12.002013,20.8731 0.117976,0.212753 0.241138,0.628605 -0.166197,0.566037 -2.440713,0.05874 -4.909016,0.126905 -7.342446,-0.02418 C 46.273696,41.636212 46.206034,40.679836 45.748753,40.186283 40.548943,31.185 35.318006,22.201137 30.215788,13.144579 c -0.08092,-0.239261 -0.604746,-0.965799 0.0038,-0.860254 1.147778,-0.04454 2.300673,-0.04252 3.455269,-0.04403 z M 32.66344,26.071807 c 1.268829,1.524005 2.125111,3.350327 3.147809,5.04172 0.258815,0.648113 0.972106,1.401846 0.337991,2.039881 -5.378446,9.513207 -10.784559,19.013819 -16.383249,28.398789 -0.380119,0.645402 -0.657254,-0.392043 -0.872978,-0.611341 -1.119627,-1.906206 -2.293866,-3.788762 -3.238425,-5.790425 5.43037,-9.35244 10.790543,-18.746615 16.241241,-28.086787 0.234902,-0.33086 0.448386,-0.778309 0.767611,-0.991837 z m 17.093096,19.903174 c 5.813161,0.02963 11.642461,-0.0443 17.445197,0.109089 0.635688,-0.01831 0.05691,0.815885 -0.111842,1.142607 -1.172509,1.829132 -2.053373,3.825487 -3.3471,5.574598 -10.981088,-0.05766 -21.972466,0.03335 -32.94595,-0.192666 -0.317887,-0.05281 -1.101222,0.106074 -0.666823,-0.431654 1.07117,-2.117292 2.325576,-4.136078 3.489119,-6.202993 5.379132,3.4e-4 10.758265,6.79e-4 16.137399,10e-4 z"
       id="path28"
       transform="translate(296.54093,173.78549)" />
  </g>
</svg>
